<?xml version="1.0" encoding="utf-8"?>
<!-- Generator: Adobe Illustrator 15.0.0, SVG Export Plug-In . SVG Version: 6.00 Build 0)  -->
<!DOCTYPE svg PUBLIC "-//W3C//DTD SVG 1.1//EN" "http://www.w3.org/Graphics/SVG/1.1/DTD/svg11.dtd">
<svg version="1.1" id="Layer_1" xmlns="http://www.w3.org/2000/svg" xmlns:xlink="http://www.w3.org/1999/xlink" x="0px" y="0px"
	 width="82.574px" height="34.336px" viewBox="0 0 82.574 34.336" enable-background="new 0 0 82.574 34.336" xml:space="preserve">
<path fill="#FFFFFF" d="M23.896,4.248c-0.274-0.142-0.598-0.149-0.879-0.022c-0.281,0.131-0.492,0.379-0.566,0.678l-0.028,0.124
	c-0.112,0.456,0.1,0.93,0.516,1.145c1.533,0.794,2.478,2.428,2.388,4.159c-0.026,0.485,0.293,0.918,0.764,1.039l0.124,0.029
	c0.292,0.073,0.602,0.011,0.847-0.168c0.239-0.178,0.394-0.455,0.408-0.758C27.617,7.875,26.199,5.424,23.896,4.248L23.896,4.248z"
	/>
<path fill="#FFFFFF" d="M24.829,0.071c-0.27-0.106-0.572-0.092-0.831,0.043c-0.259,0.135-0.448,0.372-0.521,0.656l-0.029,0.124
	c-0.124,0.49,0.139,0.998,0.612,1.184c3.682,1.447,5.932,5.255,5.389,9.188c-0.07,0.515,0.254,0.996,0.758,1.119l0.124,0.034
	c0.281,0.069,0.574,0.014,0.812-0.146c0.236-0.16,0.393-0.416,0.434-0.7C32.261,6.649,29.443,1.875,24.829,0.071L24.829,0.071z"/>
<path fill="#FFFFFF" d="M16.533,5.61H7.159C3.189,5.61,0,8.807,0,12.776v14.678c0,1.419,0.85,2.629,2.124,3.091v1.13
	c0,1.474,1.197,2.66,2.67,2.66h0.419c1.472,0,2.683-1.187,2.683-2.66v-0.921h7.895v0.921c0,1.474,1.188,2.66,2.661,2.66h0.418
	c1.474,0,2.69-1.187,2.69-2.66v-1.13c1.214-0.467,2.129-1.672,2.129-3.094V12.747C23.684,8.796,20.484,5.61,16.533,5.61L16.533,5.61
	z M5.183,27.753c-1.322,0-2.396-1.073-2.396-2.397c0-1.323,1.073-2.395,2.396-2.395c1.323,0,2.395,1.07,2.395,2.395
	S6.506,27.753,5.183,27.753L5.183,27.753z M4.431,19.275c-0.875,0-1.577-0.739-1.577-1.613v-3.956c0-2.496,2.016-4.512,4.513-4.512
	h8.927c2.495,0,4.536,2.016,4.536,4.512v3.956c0,0.874-0.728,1.613-1.603,1.613H4.431z M18.479,27.753
	c-1.321,0-2.397-1.073-2.397-2.397c0-1.323,1.076-2.395,2.397-2.395c1.323,0,2.396,1.07,2.396,2.395S19.802,27.753,18.479,27.753
	L18.479,27.753z"/>
<path fill="#FFFFFF" d="M46.82,14.467c0,2.26-1.572,3.458-4.087,3.458h-4.615V5.863h4.224c2.514,0,4.085,1.119,4.085,3.28
	c0,1.297-0.688,2.24-1.571,2.554C45.995,12.07,46.82,13.19,46.82,14.467z M42.321,10.931c1.395,0,2.142-0.53,2.142-1.67
	c0-1.14-0.747-1.631-2.142-1.631h-2.219v3.3L42.321,10.931L42.321,10.931z M40.102,16.156h2.593c1.375,0,2.122-0.688,2.122-1.768
	c0-1.101-0.747-1.768-2.122-1.768h-2.593V16.156z"/>
<path fill="#FFFFFF" d="M55.533,17.925h-1.964V17.1c-0.471,0.549-1.316,1.021-2.337,1.021c-1.984,0-3.064-1.317-3.064-3.242V9.202
	h1.964v5.342c0,1.081,0.51,1.788,1.631,1.788c0.844,0,1.59-0.531,1.807-1.395V9.202h1.964L55.533,17.925L55.533,17.925z"/>
<path fill="#FFFFFF" d="M58.729,15.41c0.216,0.728,0.864,1.1,1.729,1.1c0.903,0,1.492-0.353,1.492-1.041
	c0-0.472-0.294-0.727-1.021-0.904l-1.807-0.432c-1.237-0.294-2.162-0.963-2.162-2.397c0-1.571,1.396-2.73,3.3-2.73
	c2.042,0,3.202,0.982,3.497,2.573h-1.925c-0.176-0.57-0.688-0.962-1.591-0.962c-0.688,0-1.395,0.314-1.395,1
	c0,0.394,0.274,0.648,0.902,0.806l1.847,0.433c1.493,0.354,2.24,1.198,2.24,2.475c0,1.728-1.434,2.79-3.398,2.79
	c-2.043,0-3.457-1.021-3.712-2.711H58.729L58.729,15.41z"/>
<path fill="#FFFFFF" d="M37.984,33.341V21.279h7.701v1.807h-5.658v3.576h5.284v1.787h-5.284v4.892H37.984L37.984,33.341z"/>
<path fill="#FFFFFF" d="M47.862,23.185c-0.648,0-1.218-0.53-1.218-1.2c0-0.667,0.57-1.198,1.218-1.198
	c0.648,0,1.218,0.531,1.218,1.198C49.08,22.654,48.51,23.185,47.862,23.185z M48.843,33.341h-1.963v-8.723h1.963V33.341z"/>
<path fill="#FFFFFF" d="M50.589,24.618h1.964v0.825c0.472-0.55,1.335-1.022,2.358-1.022c1.983,0,3.085,1.318,3.085,3.242v5.678
	h-1.965v-5.344c0-1.08-0.53-1.787-1.65-1.787c-0.845,0-1.61,0.528-1.827,1.396v5.735h-1.964V24.618L50.589,24.618z"/>
<path fill="#FFFFFF" d="M65.396,32.594c-0.394,0.491-1.257,0.942-2.22,0.942c-2.553,0-4.047-2.043-4.047-4.558
	c0-2.495,1.493-4.558,4.047-4.558c0.963,0,1.827,0.452,2.22,0.942v-4.791h1.963v12.769h-1.963V32.594z M65.396,27.33
	c-0.335-0.689-1.081-1.159-1.887-1.159c-1.513,0-2.416,1.197-2.416,2.808s0.903,2.81,2.416,2.81c0.806,0,1.551-0.473,1.887-1.16
	V27.33z"/>
<path fill="#FFFFFF" d="M76.381,30.63c-0.294,1.728-1.571,2.906-3.673,2.906c-2.435,0-4.125-1.847-4.125-4.538
	c0-2.612,1.709-4.577,4.086-4.577c2.455,0,3.791,1.75,3.791,4.303v0.707h-5.951c0.059,1.532,0.943,2.457,2.199,2.457
	c0.944,0,1.651-0.414,1.867-1.258H76.381z M70.567,27.996h3.947c-0.019-1.06-0.628-1.925-1.826-1.925
	C71.607,26.071,70.803,26.738,70.567,27.996z"/>
<path fill="#FFFFFF" d="M82.574,26.603c-0.275-0.197-0.746-0.295-1.16-0.295c-0.806,0-1.552,0.452-1.747,1.395v5.639h-1.964v-8.723
	h1.964v0.903c0.335-0.648,1.1-1.101,1.945-1.101c0.432,0,0.824,0.08,0.962,0.157V26.603L82.574,26.603z"/>
</svg>
