<?xml version="1.0" encoding="utf-8"?>
<!-- Generator: Adobe Illustrator 15.0.0, SVG Export Plug-In . SVG Version: 6.00 Build 0)  -->
<!DOCTYPE svg PUBLIC "-//W3C//DTD SVG 1.1//EN" "http://www.w3.org/Graphics/SVG/1.1/DTD/svg11.dtd">
<svg version="1.1" id="Layer_1" xmlns="http://www.w3.org/2000/svg" xmlns:xlink="http://www.w3.org/1999/xlink" x="0px" y="0px"
	 width="31.679px" height="34.336px" viewBox="0 0 31.679 34.336" enable-background="new 0 0 31.679 34.336" xml:space="preserve">
<g>
	<g>
		<g>
			<path fill="#FFFFFF" d="M23.896,4.248c-0.274-0.142-0.598-0.149-0.879-0.022c-0.281,0.131-0.492,0.379-0.566,0.678l-0.028,0.124
				c-0.112,0.456,0.1,0.93,0.516,1.145c1.533,0.794,2.478,2.428,2.388,4.159c-0.026,0.485,0.293,0.918,0.764,1.039l0.124,0.029
				c0.292,0.073,0.602,0.011,0.847-0.168c0.239-0.178,0.394-0.455,0.408-0.758C27.617,7.875,26.199,5.424,23.896,4.248L23.896,4.248
				z"/>
			<path fill="#FFFFFF" d="M24.829,0.071c-0.27-0.106-0.572-0.092-0.831,0.043c-0.259,0.135-0.448,0.372-0.521,0.656l-0.029,0.124
				c-0.124,0.49,0.139,0.998,0.612,1.184c3.682,1.447,5.932,5.255,5.389,9.188c-0.07,0.515,0.254,0.996,0.758,1.119l0.124,0.034
				c0.281,0.069,0.574,0.014,0.812-0.146c0.236-0.16,0.393-0.416,0.434-0.7C32.261,6.649,29.443,1.875,24.829,0.071L24.829,0.071z"
				/>
		</g>
		<path fill="#FFFFFF" d="M16.533,5.61H7.159C3.189,5.61,0,8.807,0,12.776v14.678c0,1.419,0.85,2.629,2.124,3.091v1.13
			c0,1.474,1.197,2.66,2.67,2.66h0.419c1.472,0,2.683-1.187,2.683-2.66v-0.921h7.895v0.921c0,1.474,1.188,2.66,2.661,2.66h0.418
			c1.474,0,2.69-1.187,2.69-2.66v-1.13c1.214-0.467,2.129-1.672,2.129-3.094V12.747C23.684,8.796,20.484,5.61,16.533,5.61
			L16.533,5.61z M5.183,27.753c-1.322,0-2.396-1.073-2.396-2.397c0-1.323,1.073-2.395,2.396-2.395c1.323,0,2.395,1.07,2.395,2.395
			S6.506,27.753,5.183,27.753L5.183,27.753z M4.431,19.275c-0.875,0-1.577-0.739-1.577-1.613v-3.956
			c0-2.496,2.016-4.512,4.513-4.512h8.927c2.495,0,4.536,2.016,4.536,4.512v3.956c0,0.874-0.728,1.613-1.603,1.613H4.431z
			 M18.479,27.753c-1.321,0-2.397-1.073-2.397-2.397c0-1.323,1.076-2.395,2.397-2.395c1.323,0,2.396,1.07,2.396,2.395
			S19.802,27.753,18.479,27.753L18.479,27.753z"/>
	</g>
</g>
</svg>
