<?xml version="1.0" encoding="utf-8"?>
<!-- Generator: Adobe Illustrator 15.0.0, SVG Export Plug-In . SVG Version: 6.00 Build 0)  -->
<!DOCTYPE svg PUBLIC "-//W3C//DTD SVG 1.1//EN" "http://www.w3.org/Graphics/SVG/1.1/DTD/svg11.dtd">
<svg version="1.1" id="Layer_1" xmlns="http://www.w3.org/2000/svg" xmlns:xlink="http://www.w3.org/1999/xlink" x="0px" y="0px"
	 width="21.5px" height="40.252px" viewBox="0 0 21.5 40.252" enable-background="new 0 0 21.5 40.252" xml:space="preserve">
<g>
	<path fill="#3EBB51" d="M10.75,37.556c-0.877-4.049-3.066-12.062-7.7-18.979C1.17,15.771,0.5,12.694,0.5,10.75
		C0.5,5.098,5.099,0.5,10.75,0.5C16.402,0.5,21,5.098,21,10.75c0,1.944-0.67,5.021-2.55,7.827
		C13.816,25.493,11.627,33.507,10.75,37.556z"/>
	<path fill="#499051" d="M10.75,1c5.376,0,9.75,4.374,9.75,9.75c0,1.87-0.646,4.835-2.466,7.548
		c-4.005,5.979-6.183,12.63-7.284,17.002c-1.102-4.372-3.279-11.023-7.285-17.002C1.648,15.585,1,12.62,1,10.75
		C1,5.374,5.375,1,10.75,1 M10.75,0C4.813,0,0,4.813,0,10.75c0,1.869,0.618,5.095,2.635,8.105c6.49,9.687,8.115,21.397,8.115,21.397
		s1.625-11.71,8.115-21.397c2.017-3.01,2.635-6.236,2.635-8.105C21.5,4.813,16.688,0,10.75,0L10.75,0z"/>
</g>
<path fill="#FFFFFF" d="M12.852,5.199H8.648c-1.779,0-3.209,1.434-3.209,3.213v6.58c0,0.637,0.381,1.179,0.951,1.386v0.507
	c0,0.66,0.537,1.192,1.197,1.192h0.188c0.66,0,1.203-0.532,1.203-1.192v-0.413h3.54v0.413c0,0.66,0.532,1.192,1.192,1.192h0.188
	c0.662,0,1.207-0.532,1.207-1.192v-0.507c0.543-0.209,0.955-0.749,0.955-1.387V8.398C16.057,6.627,14.623,5.199,12.852,5.199
	L12.852,5.199z M7.763,15.126c-0.593,0-1.074-0.48-1.074-1.074c0-0.593,0.481-1.074,1.074-1.074s1.073,0.48,1.073,1.074
	C8.836,14.646,8.355,15.126,7.763,15.126L7.763,15.126z M7.426,11.325c-0.393,0-0.707-0.331-0.707-0.723V8.828
	c0-1.119,0.903-2.022,2.023-2.022h4.002c1.119,0,2.033,0.903,2.033,2.022v1.774c0,0.392-0.326,0.723-0.719,0.723H7.426z
	 M13.723,15.126c-0.592,0-1.074-0.48-1.074-1.074c0-0.593,0.482-1.074,1.074-1.074c0.594,0,1.074,0.48,1.074,1.074
	C14.797,14.646,14.316,15.126,13.723,15.126L13.723,15.126z"/>
</svg>
